<svg width="300" height="400" viewBox="0 0 300 400" xmlns="http://www.w3.org/2000/svg">
  <!-- Remera blanca con líneas modernas -->
  <defs>
    <linearGradient id="whiteShirt" x1="0%" y1="0%" x2="0%" y2="100%">
      <stop offset="0%" style="stop-color:#ffffff;stop-opacity:1" />
      <stop offset="100%" style="stop-color:#f8f9fa;stop-opacity:1" />
    </linearGradient>
  </defs>
  
  <!-- Cuerpo de la remera -->
  <path d="M50 80 L50 120 C50 140 70 160 100 160 L200 160 C230 160 250 140 250 120 L250 80 C250 60 230 40 100 40 C70 40 50 60 50 80 Z" 
        fill="url(#whiteShirt)" 
        stroke="#e5e7eb" 
        stroke-width="2"/>
  
  <!-- Manga izquierda -->
  <path d="M50 80 C30 80 20 100 20 120 L20 140 C20 160 40 180 60 180 L80 180 C80 160 80 140 80 120 L80 100 C80 90 70 80 50 80 Z" 
        fill="url(#whiteShirt)" 
        stroke="#e5e7eb" 
        stroke-width="2"/>
  
  <!-- Manga derecha -->
  <path d="M250 80 C270 80 280 100 280 120 L280 140 C280 160 260 180 240 180 L220 180 C220 160 220 140 220 120 L220 100 C220 90 230 80 250 80 Z" 
        fill="url(#whiteShirt)" 
        stroke="#e5e7eb" 
        stroke-width="2"/>
  
  <!-- Cuello -->
  <ellipse cx="150" cy="80" rx="25" ry="15" 
           fill="url(#whiteShirt)" 
           stroke="#e5e7eb" 
           stroke-width="2"/>
  
  <!-- Líneas modernas en el pecho -->
  <line x1="100" y1="110" x2="200" y2="110" stroke="#F59E0B" stroke-width="3"/>
  <line x1="110" y1="125" x2="190" y2="125" stroke="#F59E0B" stroke-width="2"/>
  <line x1="120" y1="140" x2="180" y2="140" stroke="#F59E0B" stroke-width="1"/>
</svg>
