<svg width="300" height="400" viewBox="0 0 300 400" xmlns="http://www.w3.org/2000/svg">
  <!-- Buzo gris con patrón vintage -->
  <defs>
    <linearGradient id="grayHoodie" x1="0%" y1="0%" x2="0%" y2="100%">
      <stop offset="0%" style="stop-color:#9ca3af;stop-opacity:1" />
      <stop offset="100%" style="stop-color:#6b7280;stop-opacity:1" />
    </linearGradient>
    <pattern id="vintagePattern2" x="0" y="0" width="20" height="20" patternUnits="userSpaceOnUse">
      <circle cx="10" cy="10" r="3" fill="#10B981" opacity="0.4"/>
    </pattern>
  </defs>
  
  <!-- Cuerpo del buzo -->
  <path d="M50 100 L50 140 C50 160 70 180 100 180 L200 180 C230 180 250 160 250 140 L250 100 C250 80 230 60 200 60 L100 60 C70 60 50 80 50 100 Z" 
        fill="url(#grayHoodie)" 
        stroke="#4b5563" 
        stroke-width="2"/>
  
  <!-- Manga izquierda -->
  <path d="M50 100 C30 100 20 120 20 140 L20 160 C20 180 40 200 60 200 L80 200 C80 180 80 160 80 140 L80 120 C80 110 70 100 50 100 Z" 
        fill="url(#grayHoodie)" 
        stroke="#4b5563" 
        stroke-width="2"/>
  
  <!-- Manga derecha -->
  <path d="M250 100 C270 100 280 120 280 140 L280 160 C280 180 260 200 240 200 L220 200 C220 180 220 160 220 140 L220 120 C220 110 230 100 250 100 Z" 
        fill="url(#grayHoodie)" 
        stroke="#4b5563" 
        stroke-width="2"/>
  
  <!-- Capucha -->
  <path d="M100 60 C100 40 120 20 150 20 C180 20 200 40 200 60 L200 80 C200 100 180 120 150 120 C120 120 100 100 100 80 L100 60 Z" 
        fill="url(#grayHoodie)" 
        stroke="#4b5563" 
        stroke-width="2"/>
  
  <!-- Bolsillo canguro -->
  <path d="M120 140 L180 140 C190 140 200 150 200 160 L200 180 C200 190 190 200 180 200 L120 200 C110 200 100 190 100 180 L100 160 C100 150 110 140 120 140 Z" 
        fill="url(#grayHoodie)" 
        stroke="#4b5563" 
        stroke-width="2"/>
  
  <!-- Patrón vintage en el pecho -->
  <rect x="120" y="100" width="60" height="40" fill="url(#vintagePattern2)"/>
</svg>
